<svg xmlns="http://www.w3.org/2000/svg" xmlns:xlink="http://www.w3.org/1999/xlink" width="154.709" height="42.481" viewBox="0 0 154.709 42.481"><defs><style>.a{fill:url(#a);}.b,.c,.d{fill:#f4f7fc;}.b{font-size:10px;font-family:WorkSans-Light, Work Sans;font-weight:300;}.c{font-size:12px;font-family:WorkSans-Regular, Work Sans;}.d{fill-rule:evenodd;}</style><linearGradient id="a" x1="0.853" y1="-1.856" x2="0.495" y2="0.532" gradientUnits="objectBoundingBox"><stop offset="0" stop-color="#dd187a"/><stop offset="0.567" stop-color="#b83e95"/><stop offset="1" stop-color="#453183"/></linearGradient></defs><rect class="a" width="154.709" height="42.481" rx="2.546" transform="translate(0 0)"/><g transform="translate(37.036 10.055)"><text class="b" transform="translate(65.591 9)"><tspan x="-62.12" y="0">Download on</tspan></text><text class="c" transform="translate(72.591 22.643)"><tspan x="-69.468" y="0">Apple Store</tspan></text></g><g transform="translate(10.393 4.739)"><g transform="translate(0)"><path class="d" d="M71.819,955.823A6.541,6.541,0,0,0,73.257,951a6.979,6.979,0,0,0-4.515,2.443,6.051,6.051,0,0,0-1.478,4.7,5.882,5.882,0,0,0,4.554-2.325ZM80.376,972.8a21.471,21.471,0,0,1-1.919,3.6c-1.245,1.909-3,4.287-5.178,4.3-1.933.021-2.431-1.266-5.055-1.251s-3.171,1.276-5.107,1.256c-2.176-.019-3.839-2.164-5.084-4.074-3.483-5.335-3.85-11.6-1.7-14.928a7.707,7.707,0,0,1,6.2-3.749c2.3,0,3.754,1.272,5.662,1.272,1.851,0,2.978-1.275,5.643-1.275a7.519,7.519,0,0,1,5.676,3.013,6.547,6.547,0,0,0,.86,11.829Z" transform="translate(-55 -951)"/></g></g></svg>