<svg id="Layer_1" data-name="Layer 1" xmlns="http://www.w3.org/2000/svg" viewBox="0 0 623.28 474"><defs><style>.cls-1{fill:#323542;}.cls-2,.cls-3{fill:#99c515;}.cls-3{fill-rule:evenodd;}</style></defs><title>Easypaisa logo vector</title><path class="cls-1" d="M224.32,516c-18.93,0-35.47,11.67-35.47,31v25.26c0,19.33,16.85,31.63,35,31.63,7.63,0,19.51-.31,31.38-8.41,1.26-.94.31-3.44-.94-6.24s-2.84-5-4.24-4.2c-9.19,5.13-15.43,7.78-26.2,7.78-10.3,0-19.38-7.92-19.38-19v-8.07h54.33v-19C258.79,523.77,242.85,516,224.32,516Zm19.33,38.62H204.14v-8.74c0-10.89,8.13-18.84,20.31-18.84a19.2,19.2,0,0,1,19.2,19.35ZM779.47,516a69.92,69.92,0,0,0-27.32,6.06c-1.42.62-.46,2.8,1.07,6.53,1.43,3.43,2.68,5.16,4.07,4.55,5-2.2,13.45-6.1,21.41-6.1,2.81,0,17.65-.32,17.65,19.79L784.8,547c-13.75.15-40.93,1.55-40.93,24.31v7.8c0,15,11.38,24.78,28.43,24.78,8.87,0,17.77-4.35,24.19-11.85v9.06c0,1.55,4.22,1.55,7.34,1.55s7.33,0,7.33-1.55v-54C811.16,523.29,796.8,516,779.47,516Zm16.88,64.2c-4.1,4.19-11.74,10.61-20.16,12.31-10.77,2-17.78-4.82-17.78-12.63v-7c0-9.66,8.27-12.63,18.09-13.71a176.79,176.79,0,0,1,19.85-.62ZM604,516a70.05,70.05,0,0,0-27.33,6.06c-1.39.62-.47,2.8,1.11,6.53,1.39,3.43,2.67,5.16,4.06,4.55,5-2.2,13.4-6.1,21.38-6.1,2.79,0,17.65-.32,17.65,19.79l-11.56.16c-13.75.15-40.92,1.55-40.92,24.31v7.8c0,15,11.4,24.78,28.42,24.78,8.9,0,17.79-4.35,24.21-11.85v9.06c0,1.55,4.22,1.55,7.34,1.55s7.31,0,7.31-1.55v-54C635.71,523.29,621.37,516,604,516Zm16.87,64.2c-4.08,4.19-11.72,10.61-20.14,12.31-10.78,2-17.81-4.82-17.81-12.63v-7c0-9.66,8.28-12.63,18.1-13.71a176.85,176.85,0,0,1,19.85-.62ZM668,519v82.13c0,1.55-4.37,1.55-7.49,1.55s-7.47,0-7.47-1.55V519c0-1.59,4.5-1.59,7.63-1.59S668,517.37,668,519Zm67.45,64.66c-3.13,13.73-15.45,20.26-30.29,20.26s-26.88-7.31-28.28-8.58c-1.25-1.08.34-3.72,1.56-6.22s2.84-5.28,4.2-4.53c6.58,3.77,13.76,8.26,22,8.26,7.5,0,13.59-1.7,15.89-9.34s-1.85-13.4-8.39-16.07l-19.36-7.61c-9.82-3.92-15.79-12.8-14.38-23.22C680.65,520.32,693.6,516,705.65,516c11.07,0,21.24,3.88,24.32,5.12,1.59.62.64,3.88-.29,6.55s-2.5,5.77-3.91,5.14c-2.64-1.09-11.06-5.77-19.2-5.77-4.66,0-11.54.46-13.73,6.71-1.58,4.53-.16,9.83,6.57,12.46L720,554.34C732,559,738.75,569.45,735.47,583.62ZM484,519l-43.39,114.4c-.63,1.55-3.46,1.55-7.32,1.55s-7.53,0-6.89-1.55l11.4-32L407.37,519c-.63-1.59,4.06-1.59,8-1.59s7.35,0,7.95,1.59l22,62.32a13,13,0,0,1,.64,3,13.72,13.72,0,0,1,.6-3L468.41,519c.61-1.59,4.68-1.59,7.8-1.59S484.65,517.37,484,519Zm43.86-3c-6.71.31-15.94,1.68-22.8,11.82V519c0-1.59-4.36-1.59-7.5-1.59s-7.47,0-7.47,1.59v114.4c0,1.55,4.38,1.55,7.47,1.55s7.5,0,7.5-1.55V595c5.15,5.12,12,8.86,20.46,8.86,22.31,0,34-12.93,34-34.13V549.81C559.56,528.59,549.56,514.88,527.87,516Zm16.07,54.53c0,14.81-7.34,22.28-18.41,22.28s-20.46-6.52-20.46-22.74V547.92c0-8.26,9.53-20.88,21.07-20.88,8.9,0,17.8,4.07,17.8,19.63Zm124.38-81.36V501c0,1.55-4.52,2.34-7.63,2.34s-7.81-.79-7.81-2.34V489.17c0-1.58,4.84-2,8-2S668.32,487.59,668.32,489.17ZM403.93,583.62c-3.1,13.73-15.43,20.26-30.27,20.26s-26.86-7.31-28.24-8.58c-1.28-1.08.28-3.72,1.53-6.22s2.81-5.28,4.24-4.53c6.56,3.77,13.72,8.26,22,8.26,7.51,0,13.61-1.7,15.94-9.34s-1.87-13.4-8.43-16.07l-19.36-7.61c-9.84-3.92-15.77-12.8-14.38-23.22,2.2-16.25,15.16-20.57,27.18-20.57,11.08,0,21.24,3.88,24.33,5.12,1.59.61.64,3.88-.29,6.55s-2.5,5.77-3.92,5.14c-2.64-1.09-11.07-5.77-19.2-5.77-4.66,0-11.53.46-13.72,6.71-1.6,4.53-.17,9.83,6.55,12.46l20.62,8.13C400.51,559,407.23,569.45,403.93,583.62ZM302.66,516a69.6,69.6,0,0,0-27.32,6.06c-1.42.62-.48,2.8,1.1,6.53,1.38,3.42,2.64,5.16,4,4.54,5-2.19,13.43-6.09,21.4-6.09,2.81,0,17.6-.32,17.6,19.79l-11.53.16c-13.72.15-40.87,1.55-40.87,24.31v7.8c0,15,11.36,24.78,28.4,24.78,8.88,0,17.79-4.35,24.2-11.85v9.06c0,1.55,4.21,1.55,7.33,1.55s7.33,0,7.33-1.55v-54C334.33,523.29,320,516,302.66,516Zm16.81,64.2c-4,4.19-11.68,10.61-20.11,12.31-10.78,2-17.79-4.82-17.79-12.63v-7c0-9.66,8.27-12.63,18.12-13.71a175.55,175.55,0,0,1,19.78-.62Z" transform="translate(-188.36 -263)"/><path class="cls-2" d="M811.64,364.9c-72.13,80.2-124.89,19.59-181.81,33.56C667.8,366.5,728.64,345.73,811.64,364.9Zm-133.13-31c-148.25-20.12-140.61,84-208.1,118.18C539,456.9,619.14,425.74,678.51,333.91ZM467,452.62c-11.89,8.92-26.41,15.91-43.86,21.05a139.7,139.7,0,0,1-49.05,5.05,105.26,105.26,0,0,1-55.07-20,103.14,103.14,0,0,1-36.68-46.29c-32.92-4.61-71.06-25.06-94-45.69,28.46,10.54,62,16.77,86.86,14.57-3.53-17.41,2.07-51.09,18.6-74.2,17.54-24.56,40.89-41.85,71-43.87,47.54-3.24,69.35,21.56,75.91,38.24C463.66,359.59,408,416.3,341.45,415.82c6.48,11.32,18.46,23.73,41.07,32.43C403.68,456.33,437,457.59,467,452.62ZM327,380.22s49-3.49,64.72-37.73c9.83-21.45-4.23-35.57-20.86-33.79C349.94,310.9,314.31,330.23,327,380.22Z" transform="translate(-188.36 -263)"/><path class="cls-3" d="M241.15,722.09c-3.08-.42-8.78-.48-10.43-3.75,0-11.88,6.85-14.74,16.36-20.24.68-.66,1.35-1.33,2-1.94.12-2.23.47-12.54,4.19-11.75.23.66.23,5.33.66,7.74,1.52,4.24,5,5.52,9.21,3.53-.13-2.69-.55-4.47-.55-6,.67-2,1.39-4,2.13-6h.68c.23,1.89.52,3.77.83,5.77,1.93,6.48,3.05,7.14,10.42,6.11a15.22,15.22,0,0,0-2.67-4.71c0-2.8,1.21-5.05,2.44-7.47a7.65,7.65,0,0,1,1.13.06c4.25,6.43,3.11,12.49-.28,18.67a9.77,9.77,0,0,1-11.22-.37c-.72-1-.72-1-1.28-1.21-.29,3.7-10.78,5.7-13.34-.06-1.15,2.55-3,3.94-5.32,5.22-3.7,2-7.34,3.69-10.53,6.54.75,1.21,3.91,1.46,5.32,1.58l83.39.61c-1.4,3.33-3.22,6-5.65,7.63Z" transform="translate(-188.36 -263)"/><path class="cls-3" d="M754.46,737a28.74,28.74,0,0,1-6.91-4.43c1.83-2,4.13-6,5-6.35,2.06,1.27,4.27,2.91,6.38,4.2C759.31,732.64,756.45,736.26,754.46,737Z" transform="translate(-188.36 -263)"/><path class="cls-3" d="M606,729.43c.37.48,24.66-7.52,27.45-13.94,0-4.41-1.34-7.2-4.36-10.25.12-.71,2.59-6.53,4.48-7.27,5.94,10.07,3.47,24.85-4.72,31C622.29,733.8,615.57,732.44,606,729.43Z" transform="translate(-188.36 -263)"/><path class="cls-3" d="M484.33,713.08c-.79-10.5,3-16.5,9.26-19.58,9.35-4.62,24.06-2.54,36.07.74a21.45,21.45,0,0,1-3.46,8c-7.27-3.57-24.37-5.58-33.69-1.34-7.1,3.16-6.25,8.43-1.22,13.53,13.09,13.38,53,7.14,64.05-.37,4.84-5.81-12.35-7.16-15-7.23a18.64,18.64,0,0,1,1-7.68c3.28.67,9.4.13,10.73-2.73-3.09-6.72-11.87-8.13-13.76-8.06a16.59,16.59,0,0,1,3.2-10c5.53-2.55,28-14.66,34.56-16.5,0,3.59-2.37,7.41-4.37,8.44-8.48,4.23-23.88,11.51-24,11.81,8.54,4.55,9,10.55,7.28,18,9.45,6.24,3.75,18.66-4.06,22.9-14.6,8-43.56,11.09-58.53,1.38C487.47,721.25,486.1,718.34,484.33,713.08Z" transform="translate(-188.36 -263)"/><path class="cls-3" d="M473.78,728.1c-1-5.7.24-27.35-.13-38-.11-5.67.62-7.19,4-12.22.12-.2.24-.2.42,0,1.75,13.28.42,26.54.18,38.83C477.78,720,477.17,724.64,473.78,728.1Z" transform="translate(-188.36 -263)"/><path class="cls-3" d="M707.8,725.24c.42,1.29,23.94-11.33,25.15-16.17a72.58,72.58,0,0,0-7-13.33c.2-2.42.13-5.15,1-7.87,2.3.11,5.87,8.65,9,16,2.54,5.88,2.54,9.86,9.08,10.29,6.17.43,12.79,0,18.91,0a4.07,4.07,0,0,0,1.88-.43c.83-3.07-3.83-6.35-5.75-7.68a53.29,53.29,0,0,1,1.8-7.64c9.22,1,8.37,17.63,5.4,22.78-7.94,2.06-16.68,1.34-25,1-5.76-.25-6.5-7.39-7.22-7.88C729.08,726.94,720.18,730.34,707.8,725.24Z" transform="translate(-188.36 -263)"/><path class="cls-3" d="M408.83,711.44c-.2-9.82-.25-20.06-.74-29.76.31-.85,4.25-8.06,4.48-7.8.19,10.4.48,22.77.32,33.56,0,2.55-.55,5,2,6.66,3.53,2.25,10.42,1.1,14.6.78.12-.41.07-.66-.11-2a23.51,23.51,0,0,1,3.4-6.54c.18-.2.42-.49.61.3.23,2.42.35,5.15,1.26,7.38,2.43,1.82,7.88.74,10.6.44-.29-3.22,1.1-6.18,2.49-9,.42-.31.78-.49,1.15.06.24.85.24,1.21,1,7.81,2.42,2.85,8.37,1,11.75.85a10.2,10.2,0,0,0-4.28-7.5c.77-2.5,2.11-5.17,2.84-7.29,8,3,6.11,17.21,3,21.93-3.89,1.22-10.37,1.75-14.42.8a13.1,13.1,0,0,1-2.07-2.12,4.73,4.73,0,0,1-2.06,2.12c-3.45.31-9.74,1.15-13.15-.37-.53-1-1.09-2-1.63-3-.79,1.7-1.23,3-3.09,3.47C416.22,722.94,409.06,724,408.83,711.44Z" transform="translate(-188.36 -263)"/><path class="cls-3" d="M641,722c-3-1.52.6-8.07,2-9.83.41-.18,1.57-1.69,4.72-4.41,3-2.06,6.11-3.88,9.27-5.64.24-5.45-.31-20.19-.18-25.63.37-.74,4-8,4.18-8,1.88,6.2.66,24,.91,30.36a15.78,15.78,0,0,1-5.93,9.58c-7.27,4-7.27,4.62-8.91,5.76v.43l66.34.55c0,1.69-2.83,6.25-4.17,7C687.14,721.91,659.14,722.76,641,722Z" transform="translate(-188.36 -263)"/><path class="cls-3" d="M460.87,676.28c-.19-7.8,8.12-11.81,11.63-11.81,7.22,3,15.83,2.6,21.82-2.85.9-.54,1-.54,1.3.54-3,11.82-19,13.57-26.33,9.94C465.06,672.17,463.05,674.29,460.87,676.28Z" transform="translate(-188.36 -263)"/><path class="cls-3" d="M538.44,675.27a14,14,0,0,1,2.48-8l31.92-15.82c-.12,2.37-2.34,7.1-3.92,8.66C561.39,663.56,542.57,673.44,538.44,675.27Z" transform="translate(-188.36 -263)"/><path class="cls-3" d="M631.68,694.05a30.41,30.41,0,0,1-6.91-4.42c1.84-2,4.14-6,5-6.42,2.06,1.27,4.31,3,6.43,4.23C636.6,689.67,633.69,693.32,631.68,694.05Z" transform="translate(-188.36 -263)"/><path class="cls-3" d="M558.85,725.24c.49,1.29,23.94-11.33,25.16-16.17a73.77,73.77,0,0,0-7-13.33,34.15,34.15,0,0,1,1-7.87c2.31.11,5.88,8.65,9,16,2.49,5.88,2.56,9.86,9.05,10.29,6.22.43,12.83,0,18.9,0a4,4,0,0,0,1.87-.43c.85-3.07-3.82-6.35-5.76-7.68a54.77,54.77,0,0,1,1.83-7.64c9.2,1,8.36,17.63,5.4,22.78-7.89,2.06-16.61,1.34-24.93,1-5.8-.25-6.46-7.39-7.26-7.88C580.18,726.94,571.22,730.34,558.85,725.24Z" transform="translate(-188.36 -263)"/><path class="cls-3" d="M600.6,696.58a28.08,28.08,0,0,1-6.9-4.42c1.81-2,4.14-6.06,5-6.42,2.05,1.27,4.3,3,6.42,4.24C605.52,692.23,602.61,695.86,600.6,696.58Z" transform="translate(-188.36 -263)"/><path class="cls-3" d="M328.27,712.47c-.82-10.5,3.06-16.49,9.29-19.51,9.4-4.69,24.11-2.62,36.12.71a21.57,21.57,0,0,1-3.46,8c-7.28-3.58-24.37-5.52-33.76-1.33-7.09,3.14-6.24,8.48-1.2,13.56,13.15,13.4,53,7.1,64.11-.42,4.84-5.81-12.37-7.14-15-7.2a19,19,0,0,1,.95-7.71c3.52.74,8.37.25,11-2.47-2.1-5.15-7.21-6.13-9.81-6.44a20.55,20.55,0,0,1,2.36-7.94c7,.37,10.3,4.19,11,8.79.47,3-.31,6.06-1,9,9.45,6.31,3.75,18.67-4.07,23-14.66,7.93-43.57,11-58.6,1.33C331.44,720.65,330.05,717.74,328.27,712.47Z" transform="translate(-188.36 -263)"/><path class="cls-3" d="M381.73,682.28a27.17,27.17,0,0,1-6.84-4.42c1.81-2,4.05-6,5-6.42,2.06,1.27,4.25,3,6.36,4.24C386.64,677.93,383.73,681.55,381.73,682.28Z" transform="translate(-188.36 -263)"/></svg>