<svg xmlns="http://www.w3.org/2000/svg" width="28.136" height="28.136" viewBox="0 0 28.136 28.136"><defs><style>.a{fill:#3c5a99;}.b{fill:#fff;fill-rule:evenodd;}</style></defs><g transform="translate(0.351 0.482)"><circle class="a" cx="14.068" cy="14.068" r="14.068" transform="translate(-0.351 -0.482)"/><path class="b" d="M183.7,107.67v9.123a.238.238,0,0,0,.238.238h3.388a.238.238,0,0,0,.238-.238v-9.272h2.456a.238.238,0,0,0,.237-.218l.236-2.794a.238.238,0,0,0-.237-.258h-2.692v-1.982a.841.841,0,0,1,.841-.841H190.3a.238.238,0,0,0,.238-.238V98.4a.238.238,0,0,0-.238-.238h-3.2a3.4,3.4,0,0,0-3.4,3.4v2.693h-1.694a.238.238,0,0,0-.238.238v2.794a.238.238,0,0,0,.238.238H183.7Z" transform="translate(-172.121 -93.642)"/></g></svg>