<svg xmlns="http://www.w3.org/2000/svg" xmlns:xlink="http://www.w3.org/1999/xlink" width="28.136" height="28.136" viewBox="0 0 28.136 28.136"><defs><style>.a{fill:url(#a);}.b{fill:#fff;}</style><linearGradient id="a" x1="0.074" y1="0.926" x2="1.154" y2="-0.154" gradientUnits="objectBoundingBox"><stop offset="0.001" stop-color="#fbe18a"/><stop offset="0.209" stop-color="#fcbb45"/><stop offset="0.377" stop-color="#f75274"/><stop offset="0.524" stop-color="#d53692"/><stop offset="0.739" stop-color="#8f39ce"/><stop offset="1" stop-color="#5b4fe9"/></linearGradient></defs><circle class="a" cx="14.068" cy="14.068" r="14.068" transform="translate(0 0)"/><g transform="translate(4.792 4.747)"><circle class="b" cx="1.093" cy="1.093" r="1.093" transform="translate(13.164 3.329)"/><path class="b" d="M180.371,173.316a4.591,4.591,0,1,0,4.591,4.591A4.6,4.6,0,0,0,180.371,173.316Zm0,7.532a2.941,2.941,0,1,1,2.941-2.941A2.944,2.944,0,0,1,180.371,180.848Z" transform="translate(-170.973 -168.586)"/><g transform="translate(0 0)"><path class="b" d="M102.583,107.091H95.141a5.606,5.606,0,0,1-5.6-5.6V94.049a5.606,5.606,0,0,1,5.6-5.6h7.443a5.606,5.606,0,0,1,5.6,5.6v7.443A5.606,5.606,0,0,1,102.583,107.091ZM95.141,90.2a3.85,3.85,0,0,0-3.846,3.846v7.443a3.85,3.85,0,0,0,3.846,3.846h7.443a3.85,3.85,0,0,0,3.846-3.846V94.049a3.85,3.85,0,0,0-3.846-3.846H95.141Z" transform="translate(-89.541 -88.449)"/></g></g></svg>