<svg xmlns="http://www.w3.org/2000/svg" width="28.136" height="28.136" viewBox="0 0 28.136 28.136"><defs><style>.a{fill:#3cf;}.b,.c{fill:#fff;}.c{fill-rule:evenodd;}</style></defs><circle class="a" cx="14.068" cy="14.068" r="14.068" transform="translate(0 0)"/><g transform="translate(4.601 6.246)"><path class="b" d="M119.531,130.434a7.792,7.792,0,0,1-1.913.546c.308-.052.762-.61.944-.835a3.517,3.517,0,0,0,.637-1.16c.017-.033.029-.075,0-.1a.109.109,0,0,0-.1.008,9.775,9.775,0,0,1-2.272.869.152.152,0,0,1-.157-.042,1.837,1.837,0,0,0-.2-.2,4.02,4.02,0,0,0-1.1-.674,3.831,3.831,0,0,0-1.688-.272,4.036,4.036,0,0,0-1.6.452,4.128,4.128,0,0,0-1.292,1.055,3.967,3.967,0,0,0-.772,1.545,4.186,4.186,0,0,0-.041,1.632c.012.091,0,.1-.078.091a12.135,12.135,0,0,1-7.807-3.974c-.091-.1-.141-.1-.215.008a3.959,3.959,0,0,0,.675,4.678c.153.145.31.29.48.422a3.981,3.981,0,0,1-1.506-.422c-.091-.058-.137-.025-.145.079a2.381,2.381,0,0,0,.025.447,4,4,0,0,0,2.467,3.191,2.335,2.335,0,0,0,.5.153,4.465,4.465,0,0,1-1.478.046c-.108-.021-.149.033-.108.136a4.156,4.156,0,0,0,3.1,2.6c.141.025.281.025.423.058-.008.013-.017.013-.025.025a4.919,4.919,0,0,1-2.12,1.124,7.593,7.593,0,0,1-3.22.412c-.173-.025-.21-.024-.256,0s-.006.071.05.116c.22.145.443.273.671.4a10.628,10.628,0,0,0,2.152.861,11.464,11.464,0,0,0,11.13-2.6,11.679,11.679,0,0,0,3.08-8.52c0-.123.145-.19.231-.255a7.5,7.5,0,0,0,1.508-1.575.458.458,0,0,0,.093-.3v-.016C119.6,130.384,119.608,130.4,119.531,130.434Z" transform="translate(-100.666 -128.564)"/><path class="c" d="M192.332,383.306Z" transform="translate(-186.709 -367.679)"/><path class="c" d="M190.123,383.306c-.025,0-.313,0,0,0Z" transform="translate(-184.5 -367.679)"/><path class="c" d="M202.728,383.359c0-.032.336,0,0,0C202.728,383.342,202.769,383.359,202.728,383.359Z" transform="translate(-196.467 -367.715)"/><path class="c" d="M310.706,130.527a.068.068,0,0,1-.078,0Z" transform="translate(-297.748 -130.407)"/></g></svg>