<svg width="600" height="526" viewBox="0 0 600 526" fill="none" xmlns="http://www.w3.org/2000/svg">
<path d="M489.753 343.973H556.06C580.325 343.973 600 324.291 600 300.016V219.451C600 195.177 580.325 175.494 556.06 175.494H544.876C544.876 175.494 495.254 5.01063 300.625 0.0369587C300.625 0.0369587 122.968 -7.05769 56.1837 175.346H45.5512C20.3958 175.346 0 195.749 0 220.915V298.394C0 323.559 20.3958 343.963 45.5512 343.963H66.1484C66.1484 343.963 106.018 476.523 259.728 505.156C259.728 505.156 281.989 536.854 320.682 522.071C320.682 522.071 358.314 506.217 345.594 460.616C345.594 460.616 373.155 456.374 399.657 439.406L510.965 470.16L482.343 357.749L489.753 343.973Z" fill="white"/>
<path fill-rule="evenodd" clip-rule="evenodd" d="M270.166 489.072C274.603 500.951 286.049 509.408 299.47 509.408C316.741 509.408 330.742 495.402 330.742 478.124C330.742 460.846 316.741 446.84 299.47 446.84C287.726 446.84 277.493 453.317 272.147 462.895C171.333 448.891 93.7966 362.073 94.3466 257.237C94.9402 143.278 186.87 51.8108 300.795 51.8108C414.816 51.8108 507.244 144.274 507.244 258.34C507.244 282.042 503.248 304.821 495.901 326.02H556.633C571.219 326.02 583.039 314.196 583.039 299.604V218.89C583.039 204.298 571.219 192.473 556.633 192.473H533.216C533.216 192.473 491.014 23.7503 300.626 16.836C300.626 16.836 129.329 10.9821 68.9049 192.325H45.4879C30.9013 192.325 19.0815 204.149 19.0815 218.742V299.529C19.0815 314.122 30.9013 325.946 45.4879 325.946H79.5056C79.5056 325.946 112.201 464.163 270.166 489.072Z" fill="#E14855"/>
<path fill-rule="evenodd" clip-rule="evenodd" d="M471.732 258.606C471.732 290.675 462.923 320.676 447.594 346.34L469.612 427.754L388.103 405.802C362.481 421.094 332.534 429.875 300.531 429.875C205.983 429.875 129.329 353.191 129.329 258.606C129.329 164.022 205.983 87.3379 300.531 87.3379C395.078 87.3379 471.732 164.022 471.732 258.606ZM280.389 221.489L256.75 208.562L243.817 184.902L230.884 208.562L207.244 221.489L230.884 234.427L243.817 258.076L256.75 234.427L280.389 221.489ZM370.177 208.562L393.817 221.489L370.177 234.427L357.245 258.076L344.312 234.427L320.672 221.489L344.312 208.562L357.245 184.902L370.177 208.562ZM364.092 317.78C366.573 315.139 370.972 316.104 372.117 319.54C372.657 321.163 372.276 322.934 371.173 324.228C354.891 343.019 329.311 355.119 300.541 355.119C271.94 355.119 246.498 343.168 230.205 324.577C228.869 323.05 228.53 320.898 229.346 319.042C230.841 315.627 235.346 314.853 237.891 317.578C253.293 334.09 275.894 344.515 301.092 344.515C326.173 344.515 348.7 334.175 364.092 317.78Z" fill="#E14855"/>
</svg>
