<svg width="24" height="24" viewBox="0 0 24 24" fill="none" xmlns="http://www.w3.org/2000/svg">
<path d="M12 24C18.6274 24 24 18.6274 24 12C24 5.37258 18.6274 0 12 0C5.37258 0 0 5.37258 0 12C0 18.6274 5.37258 24 12 24Z" fill="url(#paint0_linear_257_21)"/>
<path d="M12.0001 6.495C13.793 6.495 14.0077 6.495 14.7163 6.53458C15.1427 6.5382 15.565 6.61669 15.9644 6.76619C16.5489 6.99306 17.0109 7.45515 17.2378 8.03961C17.3873 8.43883 17.4656 8.86134 17.4694 9.2877C17.5034 9.99634 17.509 10.211 17.509 12.004C17.509 13.7969 17.509 14.0116 17.4694 14.7202C17.4658 15.1466 17.3873 15.5688 17.2378 15.9683C17.0109 16.5528 16.5489 17.0148 15.9644 17.2417C15.5652 17.3912 15.1427 17.4695 14.7163 17.4733C14.0077 17.5073 13.796 17.5129 12.0001 17.5129C10.2044 17.5129 9.99244 17.5129 9.2838 17.4733C8.85744 17.4697 8.43516 17.3912 8.03572 17.2417C7.45623 17.0108 6.99956 16.548 6.77632 15.9654C6.62681 15.5661 6.54855 15.1436 6.54471 14.7173C6.51078 14.0086 6.50512 13.794 6.50512 12.001C6.50512 10.208 6.50512 9.9934 6.54471 9.28476C6.54833 8.8584 6.62681 8.43612 6.77632 8.03667C7.00341 7.46036 7.4594 7.00437 8.03572 6.77728C8.43493 6.62777 8.85744 6.54951 9.2838 6.54566C9.99244 6.51174 10.2071 6.50608 12.0001 6.50608M12.0001 5.29486C10.1761 5.29486 9.94743 5.29486 9.2302 5.33445C8.67243 5.34598 8.12053 5.45206 7.59827 5.64794C6.68765 5.99491 5.96861 6.71395 5.62187 7.62434C5.426 8.14683 5.31992 8.69849 5.30838 9.25626C5.27739 9.97349 5.2688 10.2022 5.2688 12.0261C5.2688 13.8501 5.2688 14.0787 5.30838 14.796C5.33077 15.3467 5.44545 15.8898 5.64721 16.4026C5.99395 17.3132 6.71321 18.0322 7.62361 18.379C8.14609 18.5748 8.69776 18.6809 9.25553 18.6925C9.97276 18.7234 10.2014 18.732 12.0254 18.732C13.8493 18.732 14.078 18.732 14.7952 18.6925C15.353 18.6809 15.9049 18.5748 16.4272 18.379C17.3378 18.0322 18.0568 17.313 18.4036 16.4026C18.5994 15.8803 18.7055 15.3284 18.7171 14.7706C18.748 14.0534 18.7566 13.8247 18.7566 12.0008C18.7566 10.1768 18.7566 9.94816 18.7171 9.23093C18.7055 8.67316 18.5994 8.12127 18.4036 7.59901C18.0568 6.68861 17.3376 5.96935 16.4272 5.62261C15.9049 5.42673 15.353 5.32065 14.7952 5.30911C14.078 5.27813 13.8493 5.26953 12.0254 5.26953L12.0001 5.29486Z" fill="white"/>
<path d="M12 8.54883C10.0944 8.54883 8.5498 10.0934 8.5498 11.999C8.5498 13.9047 10.0946 15.4495 12.0003 15.4495C13.9059 15.4495 15.4507 13.9047 15.4507 11.999C15.4505 10.0934 13.9056 8.54883 12 8.54883ZM12 14.2383C10.7635 14.2383 9.76102 13.2358 9.76102 11.9993C9.76102 10.7627 10.7635 9.76027 12 9.76027C13.2366 9.76027 14.239 10.7627 14.239 11.9993C14.2393 13.2358 13.2368 14.2383 12 14.2383Z" fill="white"/>
<path d="M15.586 9.22238C16.032 9.22238 16.3935 8.86086 16.3935 8.4149C16.3935 7.96894 16.032 7.60742 15.586 7.60742C15.1401 7.60742 14.7786 7.96894 14.7786 8.4149C14.7786 8.86086 15.1401 9.22238 15.586 9.22238Z" fill="white"/>
<defs>
<linearGradient id="paint0_linear_257_21" x1="2.82945" y1="2.82945" x2="21.7093" y2="21.7093" gradientUnits="userSpaceOnUse">
<stop offset="0.039" stop-color="#8549E4"/>
<stop offset="0.1591" stop-color="#A846BF"/>
<stop offset="0.311" stop-color="#CD4498"/>
<stop offset="0.4505" stop-color="#E9427B"/>
<stop offset="0.5717" stop-color="#F9416A"/>
<stop offset="0.661" stop-color="#FF4164"/>
<stop offset="0.7213" stop-color="#FF525D"/>
<stop offset="0.8406" stop-color="#FF7E4B"/>
<stop offset="1" stop-color="#FFC12F"/>
</linearGradient>
</defs>
</svg>
