<svg width="568" height="549" viewBox="0 0 568 549" fill="none" xmlns="http://www.w3.org/2000/svg">
<path d="M66.0397 122.566C42.2646 148.767 24.2018 179.628 13 213.188L86.1656 237.61C93.979 214.202 106.578 192.675 123.162 174.4C139.745 156.125 159.95 141.5 182.492 131.457L151.099 61C118.782 75.3992 89.8148 96.3657 66.0397 122.566Z" fill="url(#paint0_linear_230_33)"/>
<path fill-rule="evenodd" clip-rule="evenodd" d="M211.845 121.891L215.92 129.022C222.102 139.842 213.161 153.045 200.82 151.32L121.129 140.182C111.386 138.82 105.57 128.606 109.37 119.531L140.383 45.4856C145.189 34.0111 161.07 33.037 167.242 43.8382L172.554 53.1334C233.486 32.3315 300.05 35.3457 358.872 61.6C418.059 88.0172 464.965 135.981 490.057 195.742C515.148 255.503 516.541 322.576 493.952 383.328C471.364 444.079 426.489 493.949 368.45 522.801L334.115 453.73C374.598 433.606 405.898 398.821 421.654 356.446C437.41 314.071 436.438 267.287 418.937 225.602C401.435 183.918 368.718 150.463 327.434 132.036C290.986 115.768 250.276 112.293 211.845 121.891Z" fill="url(#paint1_linear_230_33)"/>
<path fill-rule="evenodd" clip-rule="evenodd" d="M397.038 505.25C367.994 524.729 335.249 538.029 300.839 544.317C266.036 550.677 230.29 549.725 195.874 541.521C161.458 533.318 129.126 518.043 100.934 496.667C72.7418 475.291 49.3061 448.283 32.1173 417.359C14.9285 386.435 4.3628 352.273 1.09204 317.045C-2.17872 281.816 1.91705 246.293 13.1189 212.733L86.2845 237.155C78.471 260.564 75.6142 285.342 77.8956 309.914C80.177 334.486 87.5467 358.315 99.5361 379.885C111.526 401.454 127.872 420.293 147.537 435.203C167.201 450.113 189.753 460.768 213.759 466.49C237.764 472.212 262.698 472.876 286.973 468.44C306.05 464.953 324.393 458.378 341.289 449.004L335.508 443.171C326.736 434.32 331.955 419.252 344.322 417.724L424.18 407.858C433.944 406.651 442.206 415.012 440.883 424.761L430.092 504.31C428.419 516.638 413.331 521.689 404.574 512.853L397.038 505.25Z" fill="#FFEA20"/>
<path d="M300.293 325.985L269.961 295.523V252.539C269.97 248.712 268.681 245.499 266.092 242.899C263.504 240.3 260.3 239 256.481 239C252.67 238.991 249.471 240.286 246.882 242.886C244.294 245.485 243 248.703 243 252.539V300.938C243 302.735 243.337 304.481 244.011 306.178C244.685 307.875 245.696 309.4 247.044 310.754L281.083 344.938C283.77 347.646 286.969 349 290.681 349C294.393 349 297.597 347.646 300.293 344.938C302.764 342.24 304 339.027 304 335.299C304 331.571 302.764 328.467 300.293 325.985Z" fill="#FFEA20"/>
<rect x="246" y="156" width="20" height="36" rx="10" fill="#FFEA20"/>
<rect x="246" y="393" width="20" height="36" rx="10" fill="#FFEA20"/>
<rect x="120" y="302.5" width="20" height="36" rx="10" transform="rotate(-90 120 302.5)" fill="#FFEA20"/>
<rect x="357" y="302.5" width="20" height="36" rx="10" transform="rotate(-90 357 302.5)" fill="#FFEA20"/>
<defs>
<linearGradient id="paint0_linear_230_33" x1="182" y1="86.5" x2="79" y2="177.5" gradientUnits="userSpaceOnUse">
<stop stop-color="#FFEA20"/>
<stop offset="1" stop-color="#FFEA20"/>
</linearGradient>
<linearGradient id="paint1_linear_230_33" x1="415" y1="466" x2="297" y2="42.5" gradientUnits="userSpaceOnUse">
<stop stop-color="#FFEA20"/>
<stop offset="0.757955" stop-color="#FF8400"/>
</linearGradient>
</defs>
</svg>
