<svg width="24" height="24" viewBox="0 0 24 24" fill="none" xmlns="http://www.w3.org/2000/svg">
<circle cx="12" cy="12" r="12" fill="black"/>
<path d="M15.1822 10.0542C16.0861 10.7001 17.1935 11.0801 18.3896 11.0801V8.77978C18.1632 8.77983 17.9374 8.75621 17.716 8.70932V10.52C16.52 10.52 15.4128 10.14 14.5086 9.49422V14.1886C14.5086 16.5369 12.6039 18.4405 10.2545 18.4405C9.37788 18.4405 8.56306 18.1756 7.88623 17.7213C8.65875 18.5108 9.73607 19.0005 10.9279 19.0005C13.2775 19.0005 15.1822 17.097 15.1822 14.7485V10.0542H15.1822ZM16.0131 7.73348C15.5511 7.22904 15.2478 6.57713 15.1822 5.8564V5.56055H14.5438C14.7045 6.47656 15.2526 7.25914 16.0131 7.73348ZM9.37222 15.9193C9.11411 15.5811 8.97459 15.1672 8.97522 14.7418C8.97522 13.6678 9.84641 12.7969 10.9213 12.7969C11.1215 12.7968 11.3206 12.8275 11.5116 12.888V10.5363C11.2885 10.5057 11.0633 10.4927 10.8383 10.4975V12.328C10.6473 12.2674 10.448 12.2367 10.2477 12.2369C9.17287 12.2369 8.30172 13.1077 8.30172 14.1818C8.30172 14.9414 8.73715 15.5989 9.37222 15.9193Z" fill="#FF004F"/>
<path d="M14.5082 9.49417C15.4124 10.14 16.5195 10.52 17.7155 10.52V8.70927C17.0479 8.56712 16.457 8.21847 16.0126 7.73348C15.2521 7.25909 14.7041 6.47651 14.5434 5.56055H12.8668V14.7484C12.863 15.8195 11.9933 16.6868 10.9207 16.6868C10.2888 16.6868 9.72725 16.3857 9.37168 15.9192C8.7367 15.5989 8.30123 14.9413 8.30123 14.1819C8.30123 13.1078 9.17238 12.2369 10.2472 12.2369C10.4531 12.2369 10.6516 12.269 10.8378 12.328V10.4975C8.52961 10.5452 6.67334 12.4302 6.67334 14.7485C6.67334 15.9057 7.13558 16.9548 7.88583 17.7214C8.56267 18.1756 9.37743 18.4406 10.2541 18.4406C12.6035 18.4406 14.5082 16.5369 14.5082 14.1886V9.49422L14.5082 9.49417Z" fill="white"/>
<path d="M17.7157 8.70867V8.21919C17.1137 8.2201 16.5236 8.05159 16.0128 7.73294C16.465 8.22766 17.0603 8.56882 17.7157 8.70877V8.70867ZM14.5436 5.55996C14.5282 5.47243 14.5165 5.38433 14.5083 5.29585V5H12.1933V14.188C12.1896 15.259 11.3199 16.1263 10.2473 16.1263C9.94327 16.1267 9.64336 16.0556 9.37183 15.9188C9.7274 16.3852 10.2889 16.6862 10.9209 16.6862C11.9934 16.6862 12.8632 15.819 12.8669 14.7479V5.56H14.5436V5.55996ZM10.8381 10.497V9.97576C10.6446 9.94932 10.4496 9.93609 10.2544 9.93617C7.90467 9.93617 6 11.8398 6 14.188C6 15.6602 6.74856 16.9576 7.88609 17.7208C7.13583 16.9542 6.67359 15.9051 6.67359 14.7479C6.67359 12.4296 8.52982 10.5446 10.8381 10.497Z" fill="#00F2EA"/>
</svg>
