<svg width="24" height="24" viewBox="0 0 24 24" fill="none" xmlns="http://www.w3.org/2000/svg">
<circle cx="12" cy="12" r="12" fill="white"/>
<path fill-rule="evenodd" clip-rule="evenodd" d="M19.1821 7.80469C19.415 8.03711 19.5829 8.32617 19.6689 8.64453C20.1645 10.6387 20.0497 13.7891 19.6786 15.8594C19.5927 16.1777 19.4247 16.4688 19.1918 16.7012C18.9589 16.9336 18.6689 17.1016 18.351 17.1875C17.1869 17.5059 12.5019 17.5059 12.5019 17.5059C12.5019 17.5059 11.2323 17.5059 9.851 17.4609C8.57854 17.4199 7.21086 17.3398 6.65276 17.1875C6.51262 17.1504 6.37785 17.0957 6.2509 17.0273C6.09026 16.9395 5.94231 16.8301 5.81242 16.7012C5.57951 16.4688 5.41155 16.1777 5.32561 15.8594C4.82707 13.875 4.96379 10.7227 5.31584 8.6543C5.40178 8.33594 5.56975 8.04688 5.80266 7.81445C6.03557 7.58008 6.32512 7.41406 6.64348 7.32617C7.80754 7.00977 12.4926 7 12.4926 7C12.4926 7 17.1772 7 18.3412 7.31836C18.6591 7.4043 18.9491 7.57227 19.1821 7.80469ZM14.8876 12.2559L11.0014 14.5059V10.0039L14.8876 12.2559Z" fill="#FF0000"/>
</svg>
